<mxfile host="65bd71144e">
    <diagram id="dSEtro0tPB8oOxwIFk1R" name="Page-1">
        <mxGraphModel dx="1280" dy="614" grid="1" gridSize="10" guides="1" tooltips="1" connect="1" arrows="1" fold="1" page="1" pageScale="1" pageWidth="827" pageHeight="1169" math="0" shadow="0">
            <root>
                <mxCell id="0"/>
                <mxCell id="1" parent="0"/>
                <mxCell id="j61IkkM33fPeeWJ6px-l-21" style="edgeStyle=orthogonalEdgeStyle;rounded=0;orthogonalLoop=1;jettySize=auto;html=1;exitX=0;exitY=0;exitDx=0;exitDy=15;exitPerimeter=0;entryX=1;entryY=0.25;entryDx=0;entryDy=0;fillColor=#dae8fc;strokeColor=#6c8ebf;" parent="1" source="j61IkkM33fPeeWJ6px-l-1" target="j61IkkM33fPeeWJ6px-l-6" edge="1">
                    <mxGeometry relative="1" as="geometry">
                        <mxPoint x="470" y="250" as="targetPoint"/>
                        <Array as="points">
                            <mxPoint x="740" y="290"/>
                            <mxPoint x="690" y="290"/>
                            <mxPoint x="690" y="245"/>
                        </Array>
                    </mxGeometry>
                </mxCell>
                <mxCell id="j61IkkM33fPeeWJ6px-l-22" value="verschl. Nachricht" style="edgeLabel;html=1;align=center;verticalAlign=middle;resizable=0;points=[];" parent="j61IkkM33fPeeWJ6px-l-21" vertex="1" connectable="0">
                    <mxGeometry x="0.046" y="1" relative="1" as="geometry">
                        <mxPoint as="offset"/>
                    </mxGeometry>
                </mxCell>
                <mxCell id="j61IkkM33fPeeWJ6px-l-1" value="NoSQL&lt;br&gt;DB" style="shape=cylinder3;whiteSpace=wrap;html=1;boundedLbl=1;backgroundOutline=1;size=15;" parent="1" vertex="1">
                    <mxGeometry x="740" y="265.5" width="60" height="80" as="geometry"/>
                </mxCell>
                <mxCell id="j61IkkM33fPeeWJ6px-l-2" value="API-Gateway" style="rounded=0;whiteSpace=wrap;html=1;" parent="1" vertex="1">
                    <mxGeometry x="250" y="230" width="90" height="60" as="geometry"/>
                </mxCell>
                <mxCell id="j61IkkM33fPeeWJ6px-l-11" style="edgeStyle=orthogonalEdgeStyle;rounded=0;orthogonalLoop=1;jettySize=auto;html=1;exitX=0.5;exitY=0.5;exitDx=0;exitDy=0;exitPerimeter=0;entryX=0.5;entryY=0;entryDx=0;entryDy=0;fillColor=#dae8fc;strokeColor=#6c8ebf;" parent="1" source="j61IkkM33fPeeWJ6px-l-3" target="j61IkkM33fPeeWJ6px-l-2" edge="1">
                    <mxGeometry relative="1" as="geometry"/>
                </mxCell>
                <mxCell id="j61IkkM33fPeeWJ6px-l-12" value="Public-Key" style="edgeLabel;html=1;align=center;verticalAlign=middle;resizable=0;points=[];" parent="j61IkkM33fPeeWJ6px-l-11" vertex="1" connectable="0">
                    <mxGeometry x="-0.0326" y="-1" relative="1" as="geometry">
                        <mxPoint x="37" y="-1" as="offset"/>
                    </mxGeometry>
                </mxCell>
                <mxCell id="j61IkkM33fPeeWJ6px-l-3" value="Alice" style="shape=umlActor;verticalLabelPosition=bottom;verticalAlign=top;html=1;outlineConnect=0;" parent="1" vertex="1">
                    <mxGeometry x="65" y="139" width="30" height="60" as="geometry"/>
                </mxCell>
                <mxCell id="j61IkkM33fPeeWJ6px-l-5" style="edgeStyle=orthogonalEdgeStyle;rounded=0;orthogonalLoop=1;jettySize=auto;html=1;exitX=0.5;exitY=0.5;exitDx=0;exitDy=0;exitPerimeter=0;entryX=0.5;entryY=1;entryDx=0;entryDy=0;fillColor=#f8cecc;strokeColor=#b85450;" parent="1" source="j61IkkM33fPeeWJ6px-l-4" target="j61IkkM33fPeeWJ6px-l-2" edge="1">
                    <mxGeometry relative="1" as="geometry"/>
                </mxCell>
                <mxCell id="j61IkkM33fPeeWJ6px-l-13" value="verschl. Nachricht" style="edgeLabel;html=1;align=center;verticalAlign=middle;resizable=0;points=[];" parent="j61IkkM33fPeeWJ6px-l-5" vertex="1" connectable="0">
                    <mxGeometry x="-0.3322" y="2" relative="1" as="geometry">
                        <mxPoint as="offset"/>
                    </mxGeometry>
                </mxCell>
                <mxCell id="j61IkkM33fPeeWJ6px-l-4" value="Bob" style="shape=umlActor;verticalLabelPosition=bottom;verticalAlign=top;html=1;outlineConnect=0;" parent="1" vertex="1">
                    <mxGeometry x="65" y="340" width="30" height="60" as="geometry"/>
                </mxCell>
                <mxCell id="j61IkkM33fPeeWJ6px-l-15" style="edgeStyle=orthogonalEdgeStyle;rounded=0;orthogonalLoop=1;jettySize=auto;html=1;exitX=1;exitY=0.75;exitDx=0;exitDy=0;entryX=0;entryY=0;entryDx=0;entryDy=52.5;entryPerimeter=0;fillColor=#f8cecc;strokeColor=#b85450;" parent="1" source="j61IkkM33fPeeWJ6px-l-6" target="j61IkkM33fPeeWJ6px-l-1" edge="1">
                    <mxGeometry relative="1" as="geometry">
                        <Array as="points">
                            <mxPoint x="660" y="275"/>
                            <mxPoint x="660" y="318"/>
                        </Array>
                    </mxGeometry>
                </mxCell>
                <mxCell id="j61IkkM33fPeeWJ6px-l-16" value="verschl. Nachricht" style="edgeLabel;html=1;align=center;verticalAlign=middle;resizable=0;points=[];" parent="j61IkkM33fPeeWJ6px-l-15" vertex="1" connectable="0">
                    <mxGeometry x="-0.3075" y="-1" relative="1" as="geometry">
                        <mxPoint as="offset"/>
                    </mxGeometry>
                </mxCell>
                <mxCell id="j61IkkM33fPeeWJ6px-l-19" style="edgeStyle=orthogonalEdgeStyle;rounded=0;orthogonalLoop=1;jettySize=auto;html=1;exitX=0.25;exitY=1;exitDx=0;exitDy=0;entryX=1;entryY=1;entryDx=0;entryDy=0;entryPerimeter=0;fillColor=#dae8fc;strokeColor=#6c8ebf;" parent="1" source="j61IkkM33fPeeWJ6px-l-6" target="j61IkkM33fPeeWJ6px-l-4" edge="1">
                    <mxGeometry relative="1" as="geometry">
                        <Array as="points">
                            <mxPoint x="320" y="290"/>
                            <mxPoint x="320" y="400"/>
                        </Array>
                    </mxGeometry>
                </mxCell>
                <mxCell id="j61IkkM33fPeeWJ6px-l-20" value="Public Key" style="edgeLabel;html=1;align=center;verticalAlign=middle;resizable=0;points=[];" parent="j61IkkM33fPeeWJ6px-l-19" vertex="1" connectable="0">
                    <mxGeometry x="-0.0113" y="-2" relative="1" as="geometry">
                        <mxPoint x="-122" as="offset"/>
                    </mxGeometry>
                </mxCell>
                <mxCell id="j61IkkM33fPeeWJ6px-l-24" style="edgeStyle=orthogonalEdgeStyle;rounded=0;orthogonalLoop=1;jettySize=auto;html=1;exitX=0.25;exitY=0;exitDx=0;exitDy=0;entryX=1;entryY=0.3333333333333333;entryDx=0;entryDy=0;entryPerimeter=0;fillColor=#dae8fc;strokeColor=#6c8ebf;" parent="1" source="j61IkkM33fPeeWJ6px-l-6" target="j61IkkM33fPeeWJ6px-l-3" edge="1">
                    <mxGeometry relative="1" as="geometry">
                        <mxPoint x="380" y="140" as="targetPoint"/>
                        <Array as="points">
                            <mxPoint x="320" y="230"/>
                            <mxPoint x="320" y="159"/>
                        </Array>
                    </mxGeometry>
                </mxCell>
                <mxCell id="j61IkkM33fPeeWJ6px-l-25" value="verschl. Nachricht" style="edgeLabel;html=1;align=center;verticalAlign=middle;resizable=0;points=[];" parent="j61IkkM33fPeeWJ6px-l-24" vertex="1" connectable="0">
                    <mxGeometry x="-0.2794" relative="1" as="geometry">
                        <mxPoint x="-148" as="offset"/>
                    </mxGeometry>
                </mxCell>
                <mxCell id="j61IkkM33fPeeWJ6px-l-6" value="Node Runtime" style="rounded=0;whiteSpace=wrap;html=1;" parent="1" vertex="1">
                    <mxGeometry x="340" y="230" width="120" height="60" as="geometry"/>
                </mxCell>
                <mxCell id="j61IkkM33fPeeWJ6px-l-8" value="2) Bob verschlüsselt seine Nachrichten clientsided mit dem Public-Key von Alice. Bob muss diesen selbst speichern." style="text;html=1;strokeColor=none;fillColor=none;align=center;verticalAlign=middle;whiteSpace=wrap;rounded=0;" parent="1" vertex="1">
                    <mxGeometry x="20" y="265.5" width="170" height="30" as="geometry"/>
                </mxCell>
                <mxCell id="j61IkkM33fPeeWJ6px-l-10" value="&lt;span style=&quot;&quot;&gt;1) Bob möchte Alice eine Nachricht schicken. Dazu generiert Alice ein Keypair (public und private), Bob bekommt den Public-Key.&lt;/span&gt;" style="text;html=1;strokeColor=none;fillColor=none;align=center;verticalAlign=middle;whiteSpace=wrap;rounded=0;" parent="1" vertex="1">
                    <mxGeometry x="270" y="40" width="310" height="30" as="geometry"/>
                </mxCell>
                <mxCell id="j61IkkM33fPeeWJ6px-l-17" value="3) Die verschlüsselte Nachricht wird in einer Datenbank gespeichert." style="text;html=1;strokeColor=none;fillColor=none;align=center;verticalAlign=middle;whiteSpace=wrap;rounded=0;" parent="1" vertex="1">
                    <mxGeometry x="660" y="370" width="100" height="30" as="geometry"/>
                </mxCell>
                <mxCell id="j61IkkM33fPeeWJ6px-l-23" value="4) Alice bekommt die verschlüsselte Nachricht, sobald sie sich einloggt." style="text;html=1;strokeColor=none;fillColor=none;align=center;verticalAlign=middle;whiteSpace=wrap;rounded=0;" parent="1" vertex="1">
                    <mxGeometry x="700" y="180" width="110" height="30" as="geometry"/>
                </mxCell>
                <mxCell id="j61IkkM33fPeeWJ6px-l-26" value="5) Alice kann nun mit ihrem Private-Key die Nachricht von Bob entschlüsseln" style="text;html=1;strokeColor=none;fillColor=none;align=center;verticalAlign=middle;whiteSpace=wrap;rounded=0;" parent="1" vertex="1">
                    <mxGeometry x="95" y="100" width="145" height="30" as="geometry"/>
                </mxCell>
            </root>
        </mxGraphModel>
    </diagram>
</mxfile>